HIERARCHY
ROOT Hips
{
	OFFSET	0.00	0.00	0.00
	CHANNELS 6 Xposition Yposition Zposition Zrotation Xrotation Yrotation
	JOINT LeftUpLeg
	{
		OFFSET	 0.126116	-0.065224	 0.014019
		CHANNELS 3 Zrotation Xrotation Yrotation
		JOINT LeftLeg
		{
			OFFSET	 0.000000	 0.569914	 0.000000
			CHANNELS 3 Zrotation Xrotation Yrotation
			JOINT LeftFoot
			{
				OFFSET	 0.000000	 0.544423	 0.000000
				CHANNELS 3 Zrotation Xrotation Yrotation
				JOINT LeftToeBase
				{
					OFFSET	 0.000000	 0.207117	 0.000000
					CHANNELS 3 Zrotation Xrotation Yrotation
					End Site
					{
						OFFSET	 0.000000	 0.207117	 0.000000
					}
				}
			}
		}
	}
	JOINT RightUpLeg
	{
		OFFSET	-0.124023	-0.065224	 0.008373
		CHANNELS 3 Zrotation Xrotation Yrotation
		JOINT RightLeg
		{
			OFFSET	 0.000000	 0.570047	 0.000000
			CHANNELS 3 Zrotation Xrotation Yrotation
			JOINT RightFoot
			{
				OFFSET	 0.000000	 0.544354	 0.000000
				CHANNELS 3 Zrotation Xrotation Yrotation
				JOINT RightToeBase
				{
					OFFSET	 0.000000	 0.207540	 0.000000
					CHANNELS 3 Zrotation Xrotation Yrotation
					End Site
					{
						OFFSET	 0.000000	 0.207540	 0.000000
					}
				}
			}
		}
	}
	JOINT Spine
	{
		OFFSET	 0.000184	 0.117403	 0.007763
		CHANNELS 3 Zrotation Xrotation Yrotation
		JOINT Spine1
		{
			OFFSET	 0.000000	 0.137269	 0.000000
			CHANNELS 3 Zrotation Xrotation Yrotation
			JOINT Spine2
			{
				OFFSET	 0.000000	 0.156879	 0.000000
				CHANNELS 3 Zrotation Xrotation Yrotation
				JOINT LeftShoulder
				{
					OFFSET	 0.080501	 0.160143	 0.002496
					CHANNELS 3 Zrotation Xrotation Yrotation
					JOINT LeftArm
					{
						OFFSET	 0.000000	 0.164363	 0.000000
						CHANNELS 3 Zrotation Xrotation Yrotation
						JOINT LeftForeArm
						{
							OFFSET	 0.000000	 0.364576	 0.000000
							CHANNELS 3 Zrotation Xrotation Yrotation
							JOINT LeftHand
							{
								OFFSET	 0.000000	 0.360812	 0.000000
								CHANNELS 3 Zrotation Xrotation Yrotation
								JOINT LeftHandIndex1
								{
									OFFSET	 0.000000	 0.086006	 0.000000
									CHANNELS 3 Zrotation Xrotation Yrotation
									JOINT LeftHandIndex2
									{
										OFFSET	 0.000000	 0.047237	 0.000000
										CHANNELS 3 Zrotation Xrotation Yrotation
										JOINT LeftHandIndex3
										{
											OFFSET	-0.004284	 0.038165	 0.000551
											CHANNELS 3 Zrotation Xrotation Yrotation
											End Site
											{
												OFFSET	-0.004284	 0.038165	 0.000551
											}
										}
									}
								}
							}
						}
					}
				}
				JOINT Neck
				{
					OFFSET	 0.000000	 0.176489	 0.000000
					CHANNELS 3 Zrotation Xrotation Yrotation
					JOINT Head
					{
						OFFSET	 0.000000	 0.077941	 0.001747
						CHANNELS 3 Zrotation Xrotation Yrotation
						End Site
						{
							OFFSET	 0.000000	 0.077941	 0.001747
						}
					}
				}
				JOINT RightShoulder
				{
					OFFSET	-0.080363	 0.159706	-0.000306
					CHANNELS 3 Zrotation Xrotation Yrotation
					JOINT RightArm
					{
						OFFSET	 0.000000	 0.164196	 0.000000
						CHANNELS 3 Zrotation Xrotation Yrotation
						JOINT RightForeArm
						{
							OFFSET	 0.000000	 0.365611	 0.000000
							CHANNELS 3 Zrotation Xrotation Yrotation
							JOINT RightHand
							{
								OFFSET	 0.000000	 0.360648	 0.000000
								CHANNELS 3 Zrotation Xrotation Yrotation
								JOINT RightHandIndex1
								{
									OFFSET	 0.000000	 0.069977	 0.000000
									CHANNELS 3 Zrotation Xrotation Yrotation
									JOINT RightHandIndex2
									{
										OFFSET	 0.000000	 0.052305	 0.000000
										CHANNELS 3 Zrotation Xrotation Yrotation
										JOINT RightHandIndex3
										{
											OFFSET	 0.009002	 0.042196	 0.000782
											CHANNELS 3 Zrotation Xrotation Yrotation
											End Site
											{
												OFFSET	 0.009002	 0.042196	 0.000782
											}
										}
									}
								}
							}
						}
					}
				}
			}
		}
	}
}
MOTION
Frames:    6
Frame Time: 0.03333334
 0.444410	 1.245539	 0.542740	-0.919084	-13.329180	-174.124500	 178.541900	 34.099930	-16.352020	 8.197978	-28.224970	 15.652980	 30.220780	 64.526110	-22.833080	 1.292262	 28.425850	-2.713146	 168.853800	 35.510930	 27.188540	-6.178683	-29.247370	-9.370687	-27.123440	 62.652660	 17.947910	-1.288183	 28.361890	 2.710176	 1.359147	 4.556531	 3.119215	 0.521345	 8.499998	 2.942494	 0.459476	-7.805291	-13.263700	-119.285900	 13.319790	 96.674050	 21.903300	 23.312680	 23.007050	 77.328350	-11.534430	 1.965038	 47.156250	-36.211920	 27.670510	-6.580301	 5.266122	 0.000000	 0.000000	 0.000000	 0.000000	 0.000000	 0.000000	 0.000000	-1.200771	 0.142605	-1.413924	 0.169801	-10.515930	-3.745332	 124.338000	 13.052980	-97.932240	-54.550390	 20.774450	 9.089556	-101.991200	 4.646280	-33.543260	-7.617777	-68.707200	-67.878070	 15.208500	 5.323790	 0.000000	 0.000000	 0.000000	 0.000000	 0.000000	 0.000000	 0.000000
 0.446481	 1.266886	 0.511671	-0.365589	-10.763410	-174.468400	-179.961300	 26.416960	-18.080220	 6.196548	-22.112350	 12.032340	 21.472150	 64.434680	-14.609250	 1.292262	 28.425850	-2.713146	 171.461300	 27.354200	 26.940890	-4.561196	-22.476860	-4.416963	-16.106230	 63.147270	 6.825277	-1.288183	 28.361890	 2.710176	 1.763902	 2.928457	-10.628180	-0.541660	 6.459447	 3.213059	 0.901728	-7.817023	-13.368990	-119.648900	 9.998793	 95.130680	 22.363430	 23.236350	 26.703250	 81.925260	-10.799030	 8.328385	 42.042740	-25.044610	 23.832610	-6.580301	 5.266122	 0.000000	 0.000000	 0.000000	 0.000000	 0.000000	 0.000000	 0.000000	-0.107560	 3.538193	-1.812319	-0.009907	-10.119300	-3.656929	 124.670400	 9.918613	-96.320900	-56.933960	 23.749860	 13.011330	-104.638200	 5.673918	-37.492720	 17.573850	-56.133750	-45.755300	 15.208500	 5.323790	 0.000000	 0.000000	 0.000000	 0.000000	 0.000000	 0.000000	 0.000000
 0.449063	 1.283476	 0.481997	 0.009276	-7.088489	-173.874100	-179.376300	 16.790530	-18.266180	 4.092359	-15.036470	 8.016362	 11.209410	 63.724290	-5.121701	 1.292262	 28.425850	-2.713146	 173.679100	 18.011970	 27.073810	-3.001948	-15.241200	-0.488794	-6.360948	 62.036930	-2.353815	-1.288183	 28.361890	 2.710176	 1.712623	 1.929467	-23.158380	-2.193767	 2.156156	 3.293943	 1.839256	-6.116525	-13.189120	-120.271100	 6.560189	 93.531810	 22.938290	 24.182640	 30.274220	 85.051020	-9.569227	 12.378110	 34.331860	-9.387863	 20.455730	-6.580301	 5.266122	 0.000000	 0.000000	 0.000000	 0.000000	 0.000000	 0.000000	 0.000000	 0.284577	 7.388223	-1.823243	 0.280642	-8.740640	-3.704504	 124.130500	 7.209433	-94.816510	-50.317840	 12.345220	 23.131240	-109.567700	 6.285859	-39.244450	 36.612860	-20.152970	-25.037050	 15.208500	 5.323790	 0.000000	 0.000000	 0.000000	 0.000000	 0.000000	 0.000000	 0.000000
 0.448869	 1.290232	 0.465914	-0.005597	-4.391565	-174.217400	-178.901200	 11.939480	-19.197900	 3.538764	-13.080190	 6.278430	 6.198501	 63.855130	-1.013967	 1.292262	 28.425850	-2.713146	 174.472400	 13.039170	 27.012050	-2.516373	-12.866980	 0.074552	-3.856706	 61.544460	-3.826999	-1.288183	 28.361890	 2.710176	 1.562919	 1.413066	-30.415700	-2.814111	 0.724107	 3.378941	 2.208673	-5.801688	-12.911490	-121.194800	 4.404012	 92.538510	 21.842150	 25.673830	 30.143020	 84.167350	-8.694865	 11.388750	 29.758000	 5.416297	 17.914470	-6.580301	 5.266122	 0.000000	 0.000000	 0.000000	 0.000000	 0.000000	 0.000000	 0.000000	 0.350899	 7.572773	-1.623799	 0.317330	-7.077431	-3.698325	 123.715800	 5.820307	-94.045040	-32.628360	 5.302829	 23.669100	-105.728800	 6.092997	-37.888660	 25.504120	 2.939486	-8.976499	 15.208500	 5.323790	 0.000000	 0.000000	 0.000000	 0.000000	 0.000000	 0.000000	 0.000000
 0.440762	 1.296286	 0.450333	 0.757103	-1.711875	-175.098700	-178.046800	 4.894199	-22.652660	 1.319485	-4.954029	 4.628125	 2.763718	 59.091410	 2.757043	 1.292262	 28.425850	-2.713146	 176.379700	 6.201512	 28.230610	-0.967001	-5.017977	 0.084124	-3.485855	 56.836220	-3.981683	-1.288183	 28.361890	 2.710176	 1.164833	 1.489009	 3.119548	-7.005002	-1.873909	 2.582378	 4.160522	-5.342287	-12.422760	-121.745000	 3.052133	 91.892950	 16.345060	 25.673830	 32.474340	 67.994230	-4.314615	-14.119040	 29.830540	-15.098030	 7.879125	-6.580301	 5.266122	 0.000000	 0.000000	 0.000000	 0.000000	 0.000000	 0.000000	 0.000000	 0.509981	 6.069305	-1.331470	-0.049212	-5.170286	-3.609743	 123.317000	 4.969333	-93.566060	-24.558970	 11.781350	-3.418674	-4.621696	 0.110129	-16.384370	-53.461660	-59.374530	 11.614920	 15.208500	 5.323790	 0.000000	 0.000000	 0.000000	 0.000000	 0.000000	 0.000000	 0.000000
 0.441233	 1.296938	 0.450699	 0.809656	-1.787133	-175.027800	-177.966000	 5.026531	-22.867750	 1.319173	-4.952842	 4.669496	 2.857331	 58.936060	 2.697487	 1.292262	 28.425850	-2.713146	 176.433800	 6.304832	 28.567850	-0.966669	-5.016178	 0.077351	-3.604488	 56.719260	-3.963554	-1.288183	 28.361890	 2.710176	 1.203802	 1.492694	 3.085835	-7.195420	-1.996788	 2.522703	 4.259687	-5.241934	-12.449160	-121.775200	 3.034304	 91.885350	 16.289230	 25.436320	 32.435240	 68.152150	-4.319367	-14.107140	 29.681490	-15.009090	 7.774708	-6.580301	 5.266122	 0.000000	 0.000000	 0.000000	 0.000000	 0.000000	 0.000000	 0.000000	 0.496340	 6.205096	-1.351597	-0.000681	-5.242002	-3.619277	 123.341200	 4.960784	-93.563770	-24.183820	 12.031020	-3.616633	-4.585933	 0.109298	-16.405690	-53.974740	-59.683630	 11.372480	 15.208500	 5.323790	 0.000000	 0.000000	 0.000000	 0.000000	 0.000000	 0.000000	 0.000000
